<svg id="Layer_1" data-name="Layer 1" xmlns="http://www.w3.org/2000/svg" viewBox="0 0 1241.67 1241.67"><defs><style>.cls-1{fill:#333;opacity:0;}.cls-2{fill:#fafafa;}</style></defs><title>OE Approved Logos</title><rect class="cls-1" x="0.83" y="0.83" width="1241" height="1241"/><path class="cls-2" d="M864.4,691.73a112.49,112.49,0,0,1-194.25-35.9h48.43v-.1H974.05a201.61,201.61,0,0,0,3-34.9c0-110.45-89.55-200-200-200s-200,89.55-200,200,89.54,200,200,200a200.07,200.07,0,0,0,187-129.1Zm-87.31-183.4A112.55,112.55,0,0,1,884,585.83H670.15A112.53,112.53,0,0,1,777.09,508.33Z"/><path class="cls-2" d="M464.58,420.83c-110.45,0-200,89.55-200,200s89.55,200,200,200,200-89.54,200-200S575,420.83,464.58,420.83Zm0,312.5a112.5,112.5,0,1,1,112.5-112.5A112.5,112.5,0,0,1,464.58,733.33Z"/></svg>